<?xml version="1.0" encoding="UTF-8"?>
<svg xmlns="http://www.w3.org/2000/svg" xmlns:xlink="http://www.w3.org/1999/xlink" width="40pt" height="40pt" viewBox="0 0 40 40" version="1.1">
<g id="surface1">
<path style=" stroke:none;fill-rule:nonzero;fill:rgb(0%,0%,0%);fill-opacity:1;" d="M 25.828125 23.476562 L 13.152344 23.476562 C 11.351562 23.476562 9.890625 25.035156 9.890625 26.953125 C 9.890625 28.867188 11.351562 30.425781 13.152344 30.425781 L 25.824219 30.425781 C 27.621094 30.425781 29.085938 28.867188 29.085938 26.953125 C 29.085938 25.035156 27.625 23.476562 25.828125 23.476562 Z M 25.828125 28.6875 L 13.152344 28.6875 C 12.3125 28.6875 11.628906 27.910156 11.628906 26.953125 C 11.628906 25.996094 12.3125 25.214844 13.152344 25.214844 L 25.824219 25.214844 C 26.664062 25.214844 27.347656 25.996094 27.347656 26.953125 C 27.347656 27.910156 26.664062 28.6875 25.828125 28.6875 Z M 25.828125 28.6875 "/>
<path style=" stroke:none;fill-rule:nonzero;fill:rgb(0%,0%,0%);fill-opacity:1;" d="M 13.417969 17.257812 L 20.339844 17.257812 C 22.285156 17.257812 23.867188 15.742188 23.867188 13.878906 C 23.867188 12.035156 22.351562 10.648438 20.339844 10.648438 L 13.417969 10.648438 C 11.40625 10.648438 9.890625 12.039062 9.890625 13.878906 C 9.890625 15.742188 11.472656 17.257812 13.417969 17.257812 Z M 13.417969 12.386719 L 20.339844 12.386719 C 21.230469 12.386719 22.128906 12.898438 22.128906 13.878906 C 22.128906 14.78125 21.328125 15.515625 20.339844 15.515625 L 13.417969 15.515625 C 12.433594 15.515625 11.628906 14.78125 11.628906 13.878906 C 11.628906 12.898438 12.53125 12.386719 13.417969 12.386719 Z M 13.417969 12.386719 "/>
<path style=" stroke:none;fill-rule:nonzero;fill:rgb(0%,0%,0%);fill-opacity:1;" d="M 39.507812 18.03125 C 39.269531 15.273438 36.347656 14.285156 34.832031 14.152344 C 34.5 14.121094 33.855469 14.121094 33.320312 14.128906 L 33.320312 13.257812 C 33.320312 6.195312 27.390625 0 20.632812 0 L 12.816406 0 C 6.078125 0 0.390625 6.070312 0.390625 13.257812 L 0.390625 27.242188 C 0.390625 34.253906 5.964844 39.957031 12.816406 39.957031 L 19.457031 39.953125 L 19.4375 40 L 28.6875 40 C 28.691406 40 28.707031 40 28.730469 40 C 29.453125 40 38.851562 39.773438 39.507812 28.726562 C 39.519531 28.402344 39.734375 20.691406 39.507812 18.03125 Z M 37.773438 28.652344 C 37.195312 38.34375 29.078125 38.273438 28.710938 38.261719 L 21.855469 38.261719 L 21.867188 38.21875 L 12.816406 38.21875 C 6.921875 38.21875 2.128906 33.296875 2.128906 27.242188 L 2.128906 13.257812 C 2.128906 7.015625 7.023438 1.738281 12.816406 1.738281 L 20.632812 1.738281 C 26.464844 1.738281 31.582031 7.121094 31.582031 13.257812 L 31.582031 15.914062 L 32.476562 15.886719 C 32.945312 15.871094 34.25 15.84375 34.679688 15.882812 C 34.707031 15.886719 37.601562 16.167969 37.773438 18.179688 C 37.992188 20.738281 37.773438 28.597656 37.773438 28.652344 Z M 37.773438 28.652344 "/>
</g>
</svg>
